 <svg version="1.0" xmlns="http://www.w3.org/2000/svg" width="700.000000pt" height="657.000000pt" viewBox="0 0 700.000000 657.000000" preserveAspectRatio="xMidYMid meet">
<metadata>
Created by potrace 1.12, written by Peter Selinger 2001-2015
</metadata>
<g transform="translate(0.000000,657.000000) scale(0.100000,-0.100000)" fill="#000000" stroke="none">
<path d="M1457 5711 c-52 -11 -85 -30 -93 -55 -9 -27 29 -56 113 -86 35 -12
86 -39 111 -60 26 -20 79 -55 117 -77 39 -23 79 -51 90 -63 11 -12 49 -43 85
-68 36 -25 90 -69 121 -96 31 -28 70 -63 87 -77 17 -14 34 -38 37 -52 9 -34
-16 -74 -51 -83 -36 -9 -149 21 -201 54 -87 54 -110 61 -233 78 -124 17 -126
17 -211 -4 -46 -12 -100 -22 -119 -22 -48 0 -106 -17 -149 -44 -20 -12 -58
-30 -86 -40 -27 -10 -69 -29 -92 -43 -35 -19 -43 -29 -43 -53 0 -21 8 -35 25
-46 23 -15 43 -16 173 -8 253 15 476 9 669 -20 95 -14 189 -32 209 -41 62 -26
119 -80 147 -139 18 -38 34 -57 49 -60 13 -3 104 -7 203 -8 207 -4 228 -11
287 -88 25 -33 55 -55 114 -85 81 -40 180 -120 299 -241 33 -34 74 -71 91 -82
17 -12 55 -56 84 -99 30 -43 69 -95 87 -116 18 -21 44 -61 57 -90 28 -63 46
-79 83 -75 42 5 57 58 38 132 -27 101 -75 214 -124 285 -26 39 -54 89 -61 111
-17 52 -72 115 -122 141 -22 11 -66 47 -97 78 -62 63 -83 72 -205 96 -84 16
-144 40 -159 66 -16 25 0 62 35 86 76 50 447 95 561 69 29 -7 58 -16 65 -20 6
-4 51 -11 99 -16 48 -6 130 -17 182 -26 111 -18 155 -13 178 22 15 24 15 27
-4 52 -11 15 -56 47 -100 72 -45 25 -98 57 -120 72 -29 20 -58 29 -120 36 -65
8 -96 18 -147 46 -72 40 -85 42 -176 21 -36 -8 -149 -31 -251 -51 -218 -42
-229 -41 -229 31 0 39 4 47 38 74 98 80 225 166 297 201 44 22 108 57 142 78
35 22 92 47 130 56 88 22 150 52 156 76 8 31 -16 64 -58 78 -28 10 -74 12
-150 10 -98 -4 -118 -8 -180 -37 -38 -17 -98 -36 -133 -41 -71 -10 -101 -29
-179 -111 -26 -28 -83 -76 -125 -106 -64 -45 -81 -62 -100 -106 -73 -165 -110
-202 -191 -194 -67 6 -83 26 -111 138 -27 110 -45 150 -80 172 -14 9 -52 53
-86 96 -76 101 -103 122 -220 166 -52 20 -120 51 -150 69 -88 54 -221 83 -303
67z"></path>
<path d="M4318 4829 c-11 -6 -18 -22 -18 -39 0 -22 12 -38 51 -71 29 -24 59
-61 69 -83 10 -23 38 -61 63 -85 49 -47 75 -101 101 -209 9 -35 23 -73 31 -85
37 -53 1 -93 -70 -77 -24 5 -59 29 -105 72 -74 69 -173 142 -212 157 -14 5
-62 15 -106 21 -103 15 -274 -1 -312 -29 -63 -46 -24 -76 136 -102 136 -23
169 -35 228 -84 23 -19 83 -53 132 -76 49 -23 105 -56 124 -74 19 -18 58 -46
85 -62 36 -21 58 -43 77 -79 40 -71 215 -246 336 -334 31 -22 41 -40 60 -102
21 -67 53 -125 113 -199 25 -32 65 -169 78 -269 6 -42 13 -84 17 -93 9 -25 50
-40 75 -27 55 30 69 121 44 290 -18 129 -38 181 -82 226 -17 17 -46 54 -63 83
-23 37 -47 61 -85 82 -73 41 -80 52 -69 97 15 59 42 66 164 42 63 -12 119 -29
148 -46 63 -36 119 -65 232 -119 52 -24 119 -65 148 -90 76 -65 132 -56 132
22 0 27 -7 41 -32 61 -54 45 -82 76 -100 110 -9 17 -38 44 -64 59 -25 16 -61
38 -78 50 -65 46 -92 55 -254 83 -135 24 -170 34 -184 50 -13 17 -15 26 -7 44
16 34 61 56 165 82 52 13 119 35 150 50 56 26 59 27 135 14 89 -14 122 -4 149
43 13 24 13 30 0 55 -30 53 -79 67 -235 67 -160 -1 -202 -10 -295 -65 -36 -21
-82 -43 -103 -50 -21 -6 -57 -27 -81 -45 -61 -46 -80 -55 -119 -55 -53 0 -62
19 -62 129 0 86 -3 101 -27 141 -15 25 -36 83 -47 129 -24 96 -31 106 -173
253 -127 131 -202 171 -260 137z"></path>
<path d="M1973 4565 c-70 -15 -92 -26 -148 -70 -22 -17 -59 -44 -83 -60 -24
-16 -53 -40 -64 -54 -11 -14 -51 -52 -89 -83 -39 -31 -79 -68 -90 -82 -11 -14
-40 -83 -63 -153 -24 -71 -57 -161 -75 -200 -23 -54 -33 -93 -37 -150 -6 -91
7 -128 46 -128 32 0 145 147 205 266 77 151 252 376 349 448 29 22 60 50 69
64 9 15 43 41 74 59 74 43 104 94 79 133 -14 21 -24 25 -64 24 -26 0 -75 -7
-109 -14z"></path>
<path d="M2590 3905 c-22 -67 11 -230 61 -300 51 -70 58 -108 100 -510 11
-110 29 -247 40 -305 22 -123 43 -586 30 -671 -10 -60 -26 -78 -204 -224 -54
-43 -138 -123 -188 -177 -74 -80 -97 -113 -124 -176 -18 -42 -44 -99 -59 -126
-31 -59 -34 -106 -6 -131 18 -17 28 -17 99 -8 63 8 101 22 202 71 101 51 149
67 259 92 82 18 168 45 220 69 100 45 145 57 271 71 52 5 137 17 189 25 380
58 498 64 750 36 353 -39 573 -82 678 -135 37 -18 98 -43 136 -55 67 -21 166
-77 181 -101 17 -28 100 -70 137 -70 46 0 88 35 88 73 0 35 -81 203 -126 263
-128 167 -328 354 -407 380 -92 30 -141 60 -209 132 -77 79 -81 96 -48 184 20
55 40 223 40 343 0 83 -23 202 -43 222 -22 23 -32 0 -66 -150 -60 -268 -158
-461 -245 -483 -14 -3 -84 0 -158 8 -190 20 -637 16 -738 -6 -155 -34 -249
-17 -298 54 -27 41 -37 76 -56 209 -9 57 -29 144 -45 195 -16 50 -41 169 -56
263 -24 161 -40 225 -78 314 -9 19 -27 82 -42 139 -29 113 -51 163 -94 212
-41 48 -59 87 -80 177 -22 96 -42 131 -75 131 -19 0 -27 -8 -36 -35z"></path>
<path d="M4205 3829 c-69 -9 -143 -40 -261 -108 -39 -23 -57 -41 -73 -76 -29
-63 -25 -109 10 -113 14 -2 43 4 65 12 21 8 66 24 99 37 33 12 83 40 111 61
44 33 65 41 139 53 136 22 204 79 142 119 -29 20 -143 27 -232 15z"></path>
<path d="M3960 1380 c0 -5 25 -10 55 -10 30 0 55 5 55 10 0 6 -25 10 -55 10
-30 0 -55 -4 -55 -10z"></path>
</g>
</svg>